<svg xmlns="http://www.w3.org/2000/svg" width="36" height="36" viewBox="0 0 36 36"><defs><style>.a{fill:none;}.b{fill:#00a5dc;}</style></defs><path class="a" d="M0,0H36V36H0Z"/><path class="b" d="M31.115,16.37l-13.5-13.5A2.981,2.981,0,0,0,15.5,2H5A3.009,3.009,0,0,0,2,5V15.5a2.993,2.993,0,0,0,.885,2.13l13.5,13.5A2.981,2.981,0,0,0,18.5,32a2.933,2.933,0,0,0,2.115-.885l10.5-10.5A2.933,2.933,0,0,0,32,18.5,3.03,3.03,0,0,0,31.115,16.37ZM7.25,9.5A2.25,2.25,0,1,1,9.5,7.25,2.247,2.247,0,0,1,7.25,9.5Z" transform="translate(1 1)"/></svg>